<mxfile host="app.diagrams.net" modified="2021-08-15T09:19:48.263Z" agent="5.0 (X11)" etag="BGzFqLKtLH8RMM4WjUHw" version="14.9.3" type="github">
  <diagram id="zMwBXCHeTTZ6K4X9o9UT" name="Page-1">
    <mxGraphModel dx="723" dy="377" grid="1" gridSize="10" guides="1" tooltips="1" connect="1" arrows="1" fold="1" page="1" pageScale="1" pageWidth="1169" pageHeight="827" math="0" shadow="0">
      <root>
        <mxCell id="0" />
        <mxCell id="1" parent="0" />
        <mxCell id="61L7GQkWWdhDDI4NEQh1-1" value="" style="aspect=fixed;perimeter=ellipsePerimeter;html=1;align=center;shadow=0;dashed=0;spacingTop=3;image;image=img/lib/active_directory/laptop_client.svg;" vertex="1" parent="1">
          <mxGeometry x="50" y="150" width="45" height="50" as="geometry" />
        </mxCell>
        <mxCell id="61L7GQkWWdhDDI4NEQh1-2" value="" style="html=1;strokeWidth=1;shadow=0;dashed=0;shape=mxgraph.ios7.misc.wifi;fillColor=#007AFF;strokeColor=none;buttonText=;strokeColor2=#222222;fontColor=#222222;fontSize=8;verticalLabelPosition=bottom;verticalAlign=top;align=center;" vertex="1" parent="1">
          <mxGeometry x="190" y="30" width="40" height="45" as="geometry" />
        </mxCell>
        <mxCell id="61L7GQkWWdhDDI4NEQh1-4" value="" style="aspect=fixed;perimeter=ellipsePerimeter;html=1;align=center;shadow=0;dashed=0;spacingTop=3;image;image=img/lib/active_directory/router.svg;" vertex="1" parent="1">
          <mxGeometry x="330" y="30" width="50" height="38" as="geometry" />
        </mxCell>
        <mxCell id="61L7GQkWWdhDDI4NEQh1-5" value="" style="aspect=fixed;perimeter=ellipsePerimeter;html=1;align=center;shadow=0;dashed=0;spacingTop=3;image;image=img/lib/active_directory/internet_globe.svg;" vertex="1" parent="1">
          <mxGeometry x="520" y="24" width="50" height="50" as="geometry" />
        </mxCell>
        <mxCell id="61L7GQkWWdhDDI4NEQh1-21" style="edgeStyle=orthogonalEdgeStyle;rounded=0;orthogonalLoop=1;jettySize=auto;html=1;" edge="1" parent="1" source="61L7GQkWWdhDDI4NEQh1-8" target="61L7GQkWWdhDDI4NEQh1-12">
          <mxGeometry relative="1" as="geometry" />
        </mxCell>
        <mxCell id="61L7GQkWWdhDDI4NEQh1-8" value="" style="aspect=fixed;html=1;points=[];align=center;image;fontSize=12;image=img/lib/mscae/Docker.svg;" vertex="1" parent="1">
          <mxGeometry x="560" y="280" width="50" height="41" as="geometry" />
        </mxCell>
        <mxCell id="61L7GQkWWdhDDI4NEQh1-19" style="edgeStyle=orthogonalEdgeStyle;shape=flexArrow;rounded=0;orthogonalLoop=1;jettySize=auto;html=1;" edge="1" parent="1" source="61L7GQkWWdhDDI4NEQh1-9" target="61L7GQkWWdhDDI4NEQh1-5">
          <mxGeometry relative="1" as="geometry" />
        </mxCell>
        <mxCell id="61L7GQkWWdhDDI4NEQh1-9" value="Cloudfront / CDN" style="points=[[0,0,0],[0.25,0,0],[0.5,0,0],[0.75,0,0],[1,0,0],[0,1,0],[0.25,1,0],[0.5,1,0],[0.75,1,0],[1,1,0],[0,0.25,0],[0,0.5,0],[0,0.75,0],[1,0.25,0],[1,0.5,0],[1,0.75,0]];outlineConnect=0;fontColor=#232F3E;gradientColor=#945DF2;gradientDirection=north;fillColor=#5A30B5;strokeColor=#ffffff;dashed=0;verticalLabelPosition=bottom;verticalAlign=top;align=center;html=1;fontSize=12;fontStyle=0;aspect=fixed;shape=mxgraph.aws4.resourceIcon;resIcon=mxgraph.aws4.cloudfront;" vertex="1" parent="1">
          <mxGeometry x="521" y="102" width="48" height="48" as="geometry" />
        </mxCell>
        <mxCell id="61L7GQkWWdhDDI4NEQh1-20" style="edgeStyle=orthogonalEdgeStyle;rounded=0;orthogonalLoop=1;jettySize=auto;html=1;" edge="1" parent="1" source="61L7GQkWWdhDDI4NEQh1-10" target="61L7GQkWWdhDDI4NEQh1-9">
          <mxGeometry relative="1" as="geometry" />
        </mxCell>
        <mxCell id="61L7GQkWWdhDDI4NEQh1-10" value="&lt;div&gt;S3 / Static&lt;/div&gt;" style="pointerEvents=1;shadow=0;dashed=0;html=1;strokeColor=none;fillColor=#DF8C42;labelPosition=center;verticalLabelPosition=bottom;verticalAlign=top;align=center;outlineConnect=0;shape=mxgraph.veeam2.aws_s3;" vertex="1" parent="1">
          <mxGeometry x="490" y="200" width="34" height="34" as="geometry" />
        </mxCell>
        <mxCell id="61L7GQkWWdhDDI4NEQh1-11" value="" style="outlineConnect=0;fontColor=#232F3E;gradientColor=none;fillColor=#BC1356;strokeColor=none;dashed=0;verticalLabelPosition=bottom;verticalAlign=top;align=center;html=1;fontSize=12;fontStyle=0;aspect=fixed;pointerEvents=1;shape=mxgraph.aws4.logs;" vertex="1" parent="1">
          <mxGeometry x="790" y="60" width="78" height="58" as="geometry" />
        </mxCell>
        <mxCell id="61L7GQkWWdhDDI4NEQh1-22" style="edgeStyle=orthogonalEdgeStyle;rounded=0;orthogonalLoop=1;jettySize=auto;html=1;" edge="1" parent="1" source="61L7GQkWWdhDDI4NEQh1-12" target="61L7GQkWWdhDDI4NEQh1-9">
          <mxGeometry relative="1" as="geometry" />
        </mxCell>
        <mxCell id="61L7GQkWWdhDDI4NEQh1-12" value="" style="points=[[0,0,0],[0.25,0,0],[0.5,0,0],[0.75,0,0],[1,0,0],[0,1,0],[0.25,1,0],[0.5,1,0],[0.75,1,0],[1,1,0],[0,0.25,0],[0,0.5,0],[0,0.75,0],[1,0.25,0],[1,0.5,0],[1,0.75,0]];outlineConnect=0;fontColor=#232F3E;gradientColor=#F78E04;gradientDirection=north;fillColor=#D05C17;strokeColor=#ffffff;dashed=0;verticalLabelPosition=bottom;verticalAlign=top;align=center;html=1;fontSize=12;fontStyle=0;aspect=fixed;shape=mxgraph.aws4.resourceIcon;resIcon=mxgraph.aws4.ecs;" vertex="1" parent="1">
          <mxGeometry x="560" y="200" width="40" height="40" as="geometry" />
        </mxCell>
        <mxCell id="61L7GQkWWdhDDI4NEQh1-13" value="" style="html=1;outlineConnect=0;fillColor=#CCCCCC;strokeColor=#6881B3;gradientColor=none;gradientDirection=north;strokeWidth=2;shape=mxgraph.networks.comm_link_edge;html=1;entryX=0.6;entryY=0.467;entryDx=0;entryDy=0;entryPerimeter=0;exitX=0.667;exitY=0.4;exitDx=0;exitDy=0;exitPerimeter=0;" edge="1" parent="1" source="61L7GQkWWdhDDI4NEQh1-1" target="61L7GQkWWdhDDI4NEQh1-2">
          <mxGeometry width="100" height="100" relative="1" as="geometry">
            <mxPoint x="140" y="220" as="sourcePoint" />
            <mxPoint x="240" y="120" as="targetPoint" />
          </mxGeometry>
        </mxCell>
        <mxCell id="61L7GQkWWdhDDI4NEQh1-14" value="" style="shape=link;html=1;" edge="1" parent="1" source="61L7GQkWWdhDDI4NEQh1-2" target="61L7GQkWWdhDDI4NEQh1-4">
          <mxGeometry width="100" relative="1" as="geometry">
            <mxPoint x="230" y="150" as="sourcePoint" />
            <mxPoint x="490" y="240" as="targetPoint" />
          </mxGeometry>
        </mxCell>
        <mxCell id="61L7GQkWWdhDDI4NEQh1-16" style="edgeStyle=orthogonalEdgeStyle;rounded=0;orthogonalLoop=1;jettySize=auto;html=1;" edge="1" parent="1" source="61L7GQkWWdhDDI4NEQh1-15" target="61L7GQkWWdhDDI4NEQh1-4">
          <mxGeometry relative="1" as="geometry">
            <mxPoint x="240" y="190" as="targetPoint" />
          </mxGeometry>
        </mxCell>
        <mxCell id="61L7GQkWWdhDDI4NEQh1-18" style="edgeStyle=orthogonalEdgeStyle;rounded=0;orthogonalLoop=1;jettySize=auto;html=1;" edge="1" parent="1" source="61L7GQkWWdhDDI4NEQh1-15" target="61L7GQkWWdhDDI4NEQh1-5">
          <mxGeometry relative="1" as="geometry" />
        </mxCell>
        <mxCell id="61L7GQkWWdhDDI4NEQh1-15" value="" style="verticalLabelPosition=bottom;shadow=0;dashed=0;align=center;html=1;verticalAlign=top;shape=mxgraph.electrical.transmission.optical_fiber;" vertex="1" parent="1">
          <mxGeometry x="440" y="39" width="30" height="20" as="geometry" />
        </mxCell>
      </root>
    </mxGraphModel>
  </diagram>
</mxfile>
